<?xml version="1.0" standalone="no"?><!DOCTYPE svg PUBLIC "-//W3C//DTD SVG 1.1//EN" "http://www.w3.org/Graphics/SVG/1.1/DTD/svg11.dtd"><svg t="1649661887879" class="icon" viewBox="0 0 1024 1024" version="1.1" xmlns="http://www.w3.org/2000/svg" p-id="8199" xmlns:xlink="http://www.w3.org/1999/xlink" width="200" height="200"><defs><style type="text/css">@font-face { font-family: feedback-iconfont; src: url("//at.alicdn.com/t/font_1031158_u69w8yhxdu.woff2?t=1630033759944") format("woff2"), url("//at.alicdn.com/t/font_1031158_u69w8yhxdu.woff?t=1630033759944") format("woff"), url("//at.alicdn.com/t/font_1031158_u69w8yhxdu.ttf?t=1630033759944") format("truetype"); }
</style></defs><path d="M339.49 544l318.39-258.91A371.05 371.05 0 0 0 383.2 164c-205.47 0-372 166.56-372 372s166.56 372 372 372a370.28 370.28 0 0 0 203.23-60.37zM833.64 307.15L666.97 423.82l10.61 24.24 213.63-70.45-57.57-70.46zM675.98 559.79l-9.01 34.6 222.73 35.55 12.12-83.33-225.84 13.18zM657.88 719.27l-13.64 33.34 168.18 104.54 34.85-45.45-189.39-92.43z" p-id="8200" fill="#009688"></path></svg>