<?xml version="1.0" standalone="no"?><!DOCTYPE svg PUBLIC "-//W3C//DTD SVG 1.1//EN" "http://www.w3.org/Graphics/SVG/1.1/DTD/svg11.dtd"><svg t="1649662287328" class="icon" viewBox="0 0 1024 1024" version="1.1" xmlns="http://www.w3.org/2000/svg" p-id="2374" xmlns:xlink="http://www.w3.org/1999/xlink" width="200" height="200"><defs><style type="text/css">@font-face { font-family: feedback-iconfont; src: url("//at.alicdn.com/t/font_1031158_u69w8yhxdu.woff2?t=1630033759944") format("woff2"), url("//at.alicdn.com/t/font_1031158_u69w8yhxdu.woff?t=1630033759944") format("woff"), url("//at.alicdn.com/t/font_1031158_u69w8yhxdu.ttf?t=1630033759944") format("truetype"); }
</style></defs><path d="M899.5 331.7c-18.4 0-29.8 15.9-29.8 30.7v148.2c0 19 15.5 30.7 29.8 30.7 14.2 0 29.8-16.1 29.8-30.7v-144c0-19.7-16-34.9-29.8-34.9zM124.2 333.6c-18.1 0-29.2 15.6-29.2 29.9v145.3c-0.2 16.3 12.9 29.7 29.2 30 13.9 0 29.3-15.7 29.3-30V367.6c0-19.2-15.8-34-29.3-34zM665 657.9h-0.2c3.7-4.4 5.7-9.9 5.7-15.6 0-13.7-11.1-24.7-24.8-24.7-8.2 0-15.3 4-19.9 10.1-26.9 34.6-67.7 56.9-113.6 56.9-45.4 0-85.6-21.7-112.5-55.5-5.1-7.9-14.3-12.2-23.6-11.2-9.4 1-17.3 7.3-20.5 16.2-3.2 8.8-1.2 18.8 5.3 25.6 35 49.4 92 78.6 152.5 78.2 60.6-0.4 117.2-30.3 151.6-80z" fill="#009688" p-id="2375"></path><path d="M668.5 98c-38-22.8-85.5-32.9-154.2-32.9h-13c-51.8 0-102.3 11.5-145.9 33.1-40.9 24.4-75.1 58.5-99.5 99.4-25.1 41.7-37.3 92-37.3 153.8v272c0 19.5 16.4 31.6 31.7 31.6 15.1 0 31.7-16.6 31.7-31.6v-272c0-49.3 9.3-90.5 27.5-122.3 17.2-30.8 42.7-56.2 73.5-73.4 31.9-18.2 73.1-27.4 122.6-27.4h13c49.5 0 90.7 9.2 122.6 27.4 30.9 17.1 56.3 42.5 73.5 73.4 18.3 31.8 27.5 73 27.5 122.3v272c0 49.3-9.3 90.5-27.5 122.3-17.1 30.7-42.5 56-73.2 73.2-14.2 9.4-28.4 14.1-46.5 18.7l-0.6 0.1-9.3 1.8-4.6 0.8c5.7 11 9 23.5 9 36.8 0 9.5-1.7 18.7-4.7 27.2l6-0.9c4.2-0.6 8.5-1.3 12.5-2 26.1-4.3 50.1-12.7 69.6-24.4 41.1-24.4 75.4-58.6 99.9-99.6 22.8-37.9 33-85.4 33-153.8v-272c0-61.8-12.2-112.1-37.3-153.8-24.6-41.1-58.9-75.4-100-99.8z" fill="#009688" p-id="2376"></path><path d="M512.1 879.7m-80.2 0a80.2 80.2 0 1 0 160.4 0 80.2 80.2 0 1 0-160.4 0Z" fill="#009688" p-id="2377"></path></svg>